<?xml version="1.0" encoding="utf-8"?>
<!-- Generator: Adobe Illustrator 16.0.3, SVG Export Plug-In . SVG Version: 6.00 Build 0)  -->
<!DOCTYPE svg PUBLIC "-//W3C//DTD SVG 1.1//EN" "http://www.w3.org/Graphics/SVG/1.1/DTD/svg11.dtd">
<svg version="1.1" id="Capa_1" xmlns="http://www.w3.org/2000/svg" xmlns:xlink="http://www.w3.org/1999/xlink" x="0px" y="0px"
	 width="960px" height="560px" viewBox="0 0 960 560" enable-background="new 0 0 960 560" xml:space="preserve">
<g>
	<defs>
		<rect id="SVGID_1_" x="200" y="39" width="551" height="446"/>
	</defs>
	<clipPath id="SVGID_2_">
		<use xlink:href="#SVGID_1_"  overflow="visible"/>
	</clipPath>
	<g clip-path="url(#SVGID_2_)">
		<rect id="XMLID_69_" x="106.903" y="-92.864" fill="#FFFFFF" width="747.526" height="747.528"/>
		<g>
			<g>
				<g>
					<path fill="#8F6D5D" d="M154.146,624.162c0,1.871-0.896,2.768-1.943,2.768c-0.823,0-1.419-0.377-1.569-1.047
						c-0.298,0.377-0.75,0.6-1.347,0.6c-1.121,0-1.942-0.898-1.942-2.092c0-1.197,0.821-2.092,1.942-2.092
						c0.525,0,0.896,0.219,1.196,0.521v-0.379h1.196v2.92c0,0.594,0.223,1.043,0.749,1.043c0.672,0,1.269-0.668,1.269-2.242
						c0-2.246-1.717-3.959-4.037-3.959c-2.315,0-4.187,1.793-4.187,4.26s1.872,4.264,4.41,4.264c0.823,0,1.573-0.152,2.17-0.303
						v0.447c-0.598,0.229-1.271,0.299-2.17,0.299c-2.764,0-4.857-1.941-4.857-4.637c0-2.537,2.017-4.635,4.634-4.635
						C152.576,619.754,154.146,622.074,154.146,624.162z M150.483,624.391c0-0.6-0.448-1.049-0.971-1.049
						c-0.598,0-0.972,0.375-0.972,1.049c0,0.596,0.446,0.971,0.972,0.971C150.111,625.436,150.483,624.986,150.483,624.391z"/>
				</g>
				<g>
					<path fill="#8F6D5D" d="M158.781,621.098v1.498c-0.897-0.078-1.942,0.369-1.942,1.795v3.213h-1.422v-6.43h1.422v1.041
						C157.21,621.398,157.96,621.098,158.781,621.098z"/>
				</g>
				<g>
					<path fill="#8F6D5D" d="M162.668,626.482c0.748,0,1.347-0.373,1.646-0.828l1.122,0.678c-0.602,0.896-1.571,1.418-2.84,1.418
						c-2.095,0-3.514-1.418-3.514-3.359c0-1.873,1.344-3.365,3.362-3.365c1.943,0,3.214,1.57,3.214,3.365
						c0,0.221,0,0.371-0.074,0.596H160.5C160.801,625.955,161.621,626.482,162.668,626.482z M164.387,623.867
						c-0.223-1.125-0.971-1.568-1.867-1.568c-1.048,0-1.719,0.596-1.942,1.568H164.387z"/>
				</g>
				<g>
					<path fill="#8F6D5D" d="M173.357,621.174v6.43h-1.417v-0.898c-0.526,0.676-1.273,1.125-2.247,1.125
						c-1.717,0-3.214-1.498-3.214-3.369c0-1.943,1.421-3.363,3.214-3.363c0.973,0,1.721,0.377,2.247,1.049v-0.898h1.417V621.174z
						 M172.013,624.391c0-1.197-0.898-2.021-2.018-2.021c-1.122,0-2.019,0.824-2.019,2.021c0,1.193,0.896,2.014,2.019,2.014
						C171.114,626.482,172.013,625.584,172.013,624.391z"/>
				</g>
				<g>
					<path fill="#8F6D5D" d="M175.003,618.26h1.421v9.344h-1.421V618.26z"/>
				</g>
				<g>
					<path fill="#8F6D5D" d="M183.824,621.174l-2.468,6.43h-1.569l-2.467-6.43h1.496l1.793,4.859l1.794-4.859H183.824z"/>
				</g>
				<g>
					<path fill="#8F6D5D" d="M184.795,621.174h1.419v6.656c0,1.793-0.895,2.615-2.616,2.461v-1.344
						c0.821,0.076,1.272-0.221,1.272-1.117v-6.656H184.795z M184.646,619.379c0-0.523,0.375-0.895,0.898-0.895
						s0.896,0.371,0.896,0.895c0,0.447-0.373,0.898-0.896,0.898S184.646,619.826,184.646,619.379z"/>
				</g>
				<g>
					<path fill="#8F6D5D" d="M193.616,621.174l-2.469,6.576c-0.595,1.643-1.643,2.469-3.137,2.395v-1.273
						c0.896,0.076,1.421-0.369,1.717-1.268l0.075-0.156l-2.692-6.273h1.497l1.944,4.637l1.644-4.637H193.616z"/>
				</g>
			</g>
			<g>
				<path fill="#8F6D5D" d="M265.304,608.84c0,1.57-1.121,2.842-2.691,2.842h-2.242v-5.68h2.242
					C264.183,606.002,265.304,607.268,265.304,608.84z M264.556,608.84c0-1.199-0.822-2.17-1.942-2.17h-1.496v4.262h1.496
					C263.734,611.008,264.556,610.035,264.556,608.84z"/>
				<path fill="#8F6D5D" d="M270.984,610.41h-2.541l-0.448,1.271h-0.823l2.093-5.68h0.822l2.093,5.68h-0.823L270.984,610.41z
					 M270.762,609.736l-1.049-2.842l-1.045,2.842H270.762z"/>
				<path fill="#8F6D5D" d="M276.145,609.361v2.32h-0.748v-2.32l-2.019-3.359h0.821l1.573,2.688l1.567-2.688h0.821L276.145,609.361z
					"/>
				<path fill="#8F6D5D" d="M287.43,606.002v0.668l-2.091,5.012h-0.823l2.091-5.012h-2.763v-0.744h3.586V606.002z"/>
				<path fill="#8F6D5D" d="M293.411,610.111c0,1.043-0.822,1.645-1.943,1.645c-1.125,0-1.943-0.602-1.943-1.645
					c0-0.598,0.374-1.121,0.895-1.422c-0.446-0.221-0.669-0.674-0.669-1.27c0-1.121,0.895-1.646,1.79-1.646
					c0.9,0,1.796,0.525,1.796,1.646c0,0.596-0.301,0.973-0.672,1.27C293.11,608.99,293.411,609.514,293.411,610.111z
					 M292.664,610.111c0-0.672-0.524-0.975-1.196-0.975c-0.672,0-1.196,0.303-1.196,0.975c0,0.674,0.524,0.971,1.196,0.971
					C292.215,611.082,292.664,610.711,292.664,610.111z M290.495,607.492c0,0.6,0.452,0.9,1.045,0.9c0.527,0,1.049-0.301,1.049-0.9
					c0-0.598-0.449-0.895-1.049-0.895C290.946,606.598,290.495,606.895,290.495,607.492z"/>
			</g>
			<g>
				<path fill="#8F6D5D" d="M150.933,608.84c0,1.57-1.12,2.842-2.691,2.842h-2.242v-5.68h2.242
					C149.813,606.002,150.933,607.268,150.933,608.84z M150.184,608.84c0-1.199-0.823-2.17-1.942-2.17h-1.497v4.262h1.497
					C149.36,611.008,150.184,610.035,150.184,608.84z"/>
				<path fill="#8F6D5D" d="M156.988,611.008v0.748h-3.438v-5.68h3.362v0.744h-2.615v1.717h2.393v0.676h-2.393v1.795H156.988
					L156.988,611.008z"/>
				<path fill="#8F6D5D" d="M159.229,610.41l0.673-0.375c0.223,0.6,0.675,1.047,1.495,1.047c0.824,0,1.198-0.371,1.198-0.9
					c0-0.592-0.526-0.742-1.349-1.045c-0.896-0.297-1.792-0.6-1.792-1.645c0-1.043,0.824-1.643,1.792-1.643
					c0.975,0,1.643,0.521,1.947,1.271l-0.598,0.371c-0.228-0.521-0.6-0.895-1.273-0.895c-0.598,0-1.044,0.297-1.044,0.822
					c0,0.518,0.371,0.748,1.193,0.973c0.972,0.297,1.944,0.598,1.944,1.719c0,0.971-0.821,1.645-1.944,1.645
					C160.351,611.832,159.529,611.23,159.229,610.41z"/>
				<path fill="#8F6D5D" d="M166.704,606.002v5.68h-0.747v-5.68H166.704z"/>
				<path fill="#8F6D5D" d="M175.15,609.213c0,1.422-1.044,2.619-2.765,2.619c-1.793,0-2.991-1.348-2.991-2.992
					c0-1.643,1.271-2.99,2.991-2.99c1.046,0,2.018,0.6,2.465,1.348l-0.671,0.373c-0.298-0.6-1.045-1.047-1.794-1.047
					c-1.347,0-2.242,0.969-2.242,2.236c0,1.275,0.895,2.248,2.242,2.248c1.198,0,1.871-0.672,2.018-1.494h-2.093v-0.674h2.84
					V609.213z"/>
				<path fill="#8F6D5D" d="M182.103,606.002v5.68h-0.595l-2.916-4.262v4.262h-0.75v-5.68h0.6l2.916,4.254v-4.254H182.103z"/>
				<path fill="#8F6D5D" d="M188.459,611.008v0.748h-3.438v-5.68h3.362v0.744h-2.617v1.717h2.393v0.676h-2.393v1.795H188.459
					L188.459,611.008z"/>
				<path fill="#8F6D5D" d="M196.009,608.84c0,1.57-1.121,2.842-2.693,2.842h-2.242v-5.68h2.242
					C194.812,606.002,196.009,607.268,196.009,608.84z M195.26,608.84c0-1.199-0.823-2.17-1.944-2.17h-1.496v4.262h1.496
					C194.438,611.008,195.26,610.035,195.26,608.84z"/>
				<path fill="#8F6D5D" d="M206.473,610.111c0,0.896-0.744,1.645-1.645,1.645h-2.465v-5.68h2.24c0.898,0,1.572,0.664,1.572,1.564
					c0,0.527-0.223,0.896-0.598,1.199C206.099,608.99,206.473,609.439,206.473,610.111z M203.108,606.67v1.723h1.494
					c0.451,0,0.823-0.377,0.823-0.9c0-0.449-0.372-0.895-0.823-0.895h-1.494V606.67z M205.729,610.035
					c0-0.521-0.376-0.898-0.901-0.898h-1.719v1.871h1.719C205.353,611.008,205.729,610.561,205.729,610.035z"/>
				<path fill="#8F6D5D" d="M211.108,609.361v2.32h-0.75v-2.32l-2.018-3.359h0.825l1.568,2.688l1.57-2.688h0.822L211.108,609.361z"
					/>
			</g>
			<g>
				<path fill="#8F6D5D" d="M259.848,618.705h1.569l1.942,7.25l2.094-7.25h1.421l2.093,7.25l1.943-7.25h1.571l-2.616,9.271h-1.796
					l-1.943-6.729l-1.942,6.729h-1.793L259.848,618.705z"/>
				<path fill="#8F6D5D" d="M279.507,621.32v6.656h-1.42v-0.973c-0.523,0.668-1.271,1.123-2.316,1.123
					c-1.796,0-3.29-1.496-3.29-3.516c0-1.941,1.494-3.514,3.29-3.514c1.044,0,1.793,0.453,2.316,1.117v-0.967h1.42V621.32z
					 M278.087,624.689c0-1.199-0.896-2.094-2.093-2.094s-2.094,0.895-2.094,2.094c0,1.193,0.897,2.092,2.094,2.092
					S278.087,625.883,278.087,624.689z"/>
				<path fill="#8F6D5D" d="M281.15,618.332h1.42v9.645h-1.42V618.332z"/>
				<path fill="#8F6D5D" d="M284.218,618.332h1.419v9.645h-1.419V618.332z"/>
				<path fill="#8F6D5D" d="M290.573,626.857c0.82,0,1.419-0.375,1.717-0.824l1.197,0.672c-0.6,0.898-1.573,1.422-2.914,1.422
					c-2.169,0-3.592-1.496-3.592-3.516c0-1.941,1.422-3.514,3.514-3.514c1.946,0,3.291,1.572,3.291,3.514
					c0,0.223,0,0.375-0.076,0.604h-5.23C288.702,626.332,289.524,626.857,290.573,626.857z M292.366,624.09
					c-0.226-1.125-1.048-1.648-1.871-1.648c-1.043,0-1.793,0.596-2.016,1.648H292.366z"/>
				<path fill="#8F6D5D" d="M296.85,622.742v3.141c0,0.822,0.521,0.822,1.643,0.748v1.271c-2.167,0.301-3.062-0.377-3.062-2.092
					v-3.141h-1.197v-1.35h1.197v-1.422l1.419-0.445v1.867h1.643v1.35h-1.643V622.742z"/>
			</g>
			<g>
				<g>
					<g>
						<path fill="#8F6D5D" d="M739.386,608.84c0,1.57-1.118,2.842-2.688,2.842h-2.247v-5.68h2.247
							C738.268,606.002,739.386,607.268,739.386,608.84z M738.713,608.84c0-1.199-0.825-2.17-1.945-2.17h-1.491v4.262h1.491
							C737.888,611.008,738.713,610.035,738.713,608.84z"/>
					</g>
					<g>
						<path fill="#8F6D5D" d="M741.781,608.84c0-1.643,1.269-2.99,2.914-2.99c1.642,0,2.983,1.348,2.983,2.99
							c0,1.645-1.267,2.992-2.983,2.992C743.05,611.832,741.781,610.484,741.781,608.84z M746.861,608.84
							c0-1.27-0.97-2.242-2.166-2.242c-1.271,0-2.163,0.973-2.163,2.242c0,1.271,0.966,2.242,2.163,2.242
							C745.964,611.082,746.861,610.111,746.861,608.84z"/>
					</g>
					<g>
						<path fill="#8F6D5D" d="M749.625,606.002h0.826l1.269,4.709l1.419-4.709h0.75l1.419,4.709l1.269-4.709h0.829l-1.646,5.68h-0.9
							l-1.342-4.561l-1.35,4.561h-0.892L749.625,606.002z"/>
					</g>
					<g>
						<path fill="#8F6D5D" d="M764.204,606.002v5.68h-0.597l-2.918-4.262v4.262h-0.744v-5.68h0.601l2.908,4.254v-4.254H764.204z"/>
					</g>
					<g>
						<path fill="#8F6D5D" d="M770.34,611.008v0.748h-3.222v-5.68h0.75v5.006h2.472V611.008z"/>
					</g>
					<g>
						<path fill="#8F6D5D" d="M772.13,608.84c0-1.643,1.272-2.99,2.91-2.99c1.651,0,2.991,1.348,2.991,2.99
							c0,1.645-1.266,2.992-2.991,2.992C773.402,611.832,772.13,610.484,772.13,608.84z M777.287,608.84
							c0-1.27-0.97-2.242-2.166-2.242c-1.273,0-2.173,0.973-2.173,2.242c0,1.271,0.974,2.242,2.173,2.242
							C776.317,611.082,777.287,610.111,777.287,608.84z"/>
					</g>
					<g>
						<path fill="#8F6D5D" d="M783.718,610.41h-2.544l-0.45,1.271h-0.824l2.099-5.68h0.819l2.098,5.68h-0.755L783.718,610.41z
							 M783.488,609.736l-1.042-2.842l-1.048,2.842H783.488z"/>
					</g>
					<g>
						<path fill="#8F6D5D" d="M792.313,608.84c0,1.57-1.121,2.842-2.693,2.842h-2.246v-5.68h2.246
							C791.191,606.002,792.313,607.268,792.313,608.84z M791.563,608.84c0-1.199-0.825-2.17-1.943-2.17h-1.492v4.262h1.492
							C790.812,611.008,791.563,610.035,791.563,608.84z"/>
					</g>
					<g>
						<path fill="#8F6D5D" d="M799.487,606.67v1.867h2.393v0.75h-2.393v2.395h-0.747v-5.68h3.288v0.738h-2.541V606.67z"/>
					</g>
					<g>
						<path fill="#8F6D5D" d="M806.741,609.514h-1.351v2.168h-0.749v-5.68h2.246c0.971,0,1.797,0.818,1.797,1.789
							c0,0.746-0.525,1.422-1.197,1.648l1.347,2.316h-0.825L806.741,609.514z M805.391,608.84h1.497c0.6,0,1.043-0.447,1.043-1.049
							c0-0.594-0.443-1.051-1.043-1.051h-1.497V608.84z"/>
					</g>
					<g>
						<path fill="#8F6D5D" d="M810.998,608.84c0-1.643,1.274-2.99,2.917-2.99s2.995,1.348,2.995,2.99
							c0,1.645-1.274,2.992-2.995,2.992C812.272,611.832,810.998,610.484,810.998,608.84z M816.156,608.84
							c0-1.27-0.97-2.242-2.163-2.242c-1.274,0-2.176,0.973-2.176,2.242c0,1.271,0.977,2.242,2.176,2.242
							C815.187,611.082,816.156,610.111,816.156,608.84z"/>
					</g>
					<g>
						<path fill="#8F6D5D" d="M824.827,611.682h-0.748v-4.484l-1.868,3.139h-0.069l-1.872-3.068v4.414h-0.749v-5.68h0.822
							l1.799,2.988l1.793-2.988h0.816v5.68H824.827z"/>
					</g>
				</g>
				<g>
					<g>
						<path fill="#8F6D5D" d="M734.305,619.453c0-0.525,0.37-0.893,0.892-0.893c0.527,0,0.896,0.367,0.896,0.893
							c0,0.523-0.368,0.896-0.896,0.896C734.754,620.35,734.305,619.977,734.305,619.453z M734.524,621.32h1.422v6.656h-1.422
							V621.32z"/>
					</g>
					<g>
						<path fill="#8F6D5D" d="M737.59,618.332h1.42v9.645h-1.42V618.332z"/>
					</g>
					<g>
						<path fill="#8F6D5D" d="M740.656,618.332h1.421v9.645h-1.421V618.332z"/>
					</g>
					<g>
						<path fill="#8F6D5D" d="M743.794,618.332h1.423v9.645h-1.423V618.332z"/>
					</g>
					<g>
						<path fill="#8F6D5D" d="M752.766,621.32v6.656h-1.42v-0.826c-0.446,0.68-1.121,1.053-2.016,1.053
							c-1.491,0-2.543-0.975-2.543-2.691v-4.037h1.424v3.887c0,0.971,0.594,1.568,1.489,1.568c0.971,0,1.646-0.525,1.646-1.873
							v-3.506h1.42V621.32z"/>
					</g>
					<g>
						<path fill="#8F6D5D" d="M759.195,626.109c0,1.338-1.118,2.018-2.619,2.018c-1.344,0-2.24-0.602-2.688-1.574l1.194-0.742
							c0.225,0.594,0.75,0.971,1.493,0.971c0.598,0,1.121-0.229,1.121-0.748c0-1.199-3.582-0.521-3.582-2.916
							c0-1.273,1.046-2.02,2.392-2.02c1.119,0,2.015,0.521,2.463,1.344l-1.197,0.676c-0.221-0.521-0.672-0.748-1.266-0.748
							c-0.526,0-0.972,0.227-0.972,0.668C755.682,624.391,759.195,623.639,759.195,626.109z"/>
					</g>
					<g>
						<path fill="#8F6D5D" d="M762.257,622.742v3.141c0,0.822,0.527,0.822,1.649,0.748v1.271c-2.167,0.301-3.065-0.377-3.065-2.092
							v-3.141h-1.2v-1.35h1.2v-1.422l1.416-0.445v1.867h1.649v1.35h-1.649V622.742z"/>
					</g>
					<g>
						<path fill="#8F6D5D" d="M768.763,621.248v1.572c-0.97-0.078-2.016,0.373-2.016,1.869v3.357h-1.426v-6.648h1.426v1.119
							C767.118,621.551,767.868,621.248,768.763,621.248z"/>
					</g>
					<g>
						<path fill="#8F6D5D" d="M776.166,621.32v6.656h-1.423v-0.973c-0.523,0.668-1.271,1.123-2.316,1.123
							c-1.795,0-3.291-1.496-3.291-3.516c0-1.941,1.496-3.514,3.291-3.514c1.045,0,1.793,0.453,2.316,1.117v-0.967h1.423V621.32z
							 M774.743,624.689c0-1.199-0.896-2.094-2.09-2.094c-1.199,0-2.098,0.895-2.098,2.094c0,1.193,0.898,2.092,2.098,2.092
							C773.848,626.781,774.743,625.883,774.743,624.689z"/>
					</g>
					<g>
						<path fill="#8F6D5D" d="M779.899,622.742v3.141c0,0.822,0.527,0.822,1.649,0.748v1.271c-2.17,0.301-3.065-0.377-3.065-2.092
							v-3.141h-1.196v-1.35h1.196v-1.422l1.416-0.445v1.867h1.649v1.35h-1.649V622.742z"/>
					</g>
					<g>
						<path fill="#8F6D5D" d="M782.598,619.453c0-0.525,0.37-0.893,0.891-0.893c0.522,0,0.895,0.367,0.895,0.893
							c0,0.523-0.372,0.896-0.895,0.896C783.04,620.35,782.598,619.977,782.598,619.453z M782.817,621.32h1.422v6.656h-1.422V621.32
							z"/>
					</g>
					<g>
						<path fill="#8F6D5D" d="M785.503,624.689c0-1.947,1.575-3.516,3.521-3.516c1.94,0,3.511,1.496,3.511,3.516
							c0,1.941-1.57,3.514-3.511,3.514C787.078,628.127,785.503,626.631,785.503,624.689z M791.115,624.689
							c0-1.199-0.897-2.094-2.091-2.094c-1.195,0-2.097,0.895-2.097,2.094c0,1.193,0.901,2.092,2.097,2.092
							C790.218,626.781,791.115,625.883,791.115,624.689z"/>
					</g>
					<g>
						<path fill="#8F6D5D" d="M799.86,623.936v4.041h-1.417v-3.887c0-0.973-0.602-1.572-1.5-1.572c-0.97,0-1.643,0.52-1.643,1.873
							v3.512h-1.421v-6.654h1.421v0.826c0.45-0.676,1.122-1.049,2.022-1.049C798.74,621.174,799.86,622.215,799.86,623.936z"/>
					</g>
					<g>
						<path fill="#8F6D5D" d="M806.214,626.109c0,1.338-1.12,2.018-2.613,2.018c-1.348,0-2.249-0.602-2.694-1.574l1.196-0.742
							c0.229,0.594,0.747,0.971,1.498,0.971c0.594,0,1.121-0.229,1.121-0.748c0-1.199-3.589-0.521-3.589-2.916
							c0-1.273,1.049-2.02,2.396-2.02c1.113,0,2.013,0.521,2.464,1.344l-1.194,0.676c-0.228-0.521-0.673-0.748-1.27-0.748
							c-0.525,0-0.971,0.227-0.971,0.668C802.625,624.391,806.214,623.639,806.214,626.109z"/>
					</g>
					<g>
						<path fill="#8F6D5D" d="M807.184,627.15c0-0.52,0.449-0.969,0.976-0.969c0.525,0,0.971,0.449,0.971,0.969
							c0,0.521-0.445,0.977-0.971,0.977C807.633,628.127,807.184,627.672,807.184,627.15z"/>
					</g>
					<g>
						<path fill="#8F6D5D" d="M809.805,624.689c0-1.947,1.492-3.516,3.513-3.516c1.269,0,2.391,0.67,2.915,1.721l-1.196,0.744
							c-0.305-0.602-0.971-1.043-1.719-1.043c-1.196,0-2.021,0.895-2.021,2.094c0,1.193,0.9,2.092,2.021,2.092
							c0.823,0,1.414-0.377,1.795-1.045l1.198,0.668c-0.527,1.043-1.646,1.723-2.993,1.723
							C811.297,628.127,809.805,626.631,809.805,624.689z"/>
					</g>
					<g>
						<path fill="#8F6D5D" d="M816.832,624.689c0-1.947,1.566-3.516,3.511-3.516c1.939,0,3.513,1.496,3.513,3.516
							c0,1.941-1.573,3.514-3.513,3.514C818.398,628.127,816.832,626.631,816.832,624.689z M822.434,624.689
							c0-1.199-0.895-2.094-2.091-2.094c-1.197,0-2.089,0.895-2.089,2.094c0,1.193,0.892,2.092,2.089,2.092
							C821.539,626.781,822.434,625.883,822.434,624.689z"/>
					</g>
				</g>
			</g>
		</g>
		<g id="XMLID_1_" opacity="0.15">
			
				<polyline id="XMLID_57_" fill="none" stroke="#474747" stroke-width="6" stroke-linecap="round" stroke-linejoin="round" stroke-miterlimit="10" points="
				224.638,197.1 283.992,197.1 283.992,226.031 224.638,226.031 			"/>
			
				<line id="XMLID_59_" fill="none" stroke="#474747" stroke-width="6" stroke-linecap="round" stroke-linejoin="round" stroke-miterlimit="10" x1="343.273" y1="226.031" x2="283.992" y2="226.031"/>
			
				<line id="XMLID_38_" fill="none" stroke="#474747" stroke-width="6" stroke-linecap="round" stroke-linejoin="round" stroke-miterlimit="10" x1="283.992" y1="197.1" x2="306.715" y2="197.1"/>
			
				<rect id="XMLID_42_" x="254.313" y="226.031" fill="none" stroke="#474747" stroke-width="6" stroke-linecap="round" stroke-linejoin="round" stroke-miterlimit="10" width="59.282" height="28.929"/>
			
				<polyline id="XMLID_52_" fill="none" stroke="#474747" stroke-width="6" stroke-linecap="round" stroke-linejoin="round" stroke-miterlimit="10" points="
				233.909,255.111 283.992,255.111 283.992,284.041 264.78,284.041 			"/>
			
				<rect id="XMLID_54_" x="283.992" y="255.111" fill="none" stroke="#474747" stroke-width="6" stroke-linecap="round" stroke-linejoin="round" stroke-miterlimit="10" width="59.282" height="28.93"/>
			
				<polyline id="XMLID_81_" fill="none" stroke="#474747" stroke-width="6" stroke-linecap="round" stroke-linejoin="round" stroke-miterlimit="10" points="
				540.844,301.831 600.198,301.831 600.198,330.682 540.844,330.682 			"/>
			
				<line id="XMLID_80_" fill="none" stroke="#474747" stroke-width="6" stroke-linecap="round" stroke-linejoin="round" stroke-miterlimit="10" x1="659.475" y1="330.682" x2="600.198" y2="330.682"/>
			
				<line id="XMLID_79_" fill="none" stroke="#474747" stroke-width="6" stroke-linecap="round" stroke-linejoin="round" stroke-miterlimit="10" x1="600.198" y1="301.831" x2="622.92" y2="301.831"/>
			
				<rect id="XMLID_78_" x="570.517" y="330.682" fill="none" stroke="#474747" stroke-width="6" stroke-linecap="round" stroke-linejoin="round" stroke-miterlimit="10" width="59.282" height="28.932"/>
			
				<polyline id="XMLID_77_" fill="none" stroke="#474747" stroke-width="6" stroke-linecap="round" stroke-linejoin="round" stroke-miterlimit="10" points="
				550.113,359.76 600.198,359.76 600.198,388.692 580.985,388.692 			"/>
			
				<polyline id="XMLID_76_" fill="none" stroke="#474747" stroke-width="6" stroke-linecap="round" stroke-linejoin="round" stroke-miterlimit="10" points="
				638.393,388.692 600.198,388.692 600.198,359.76 649.605,359.76 			"/>
			
				<rect id="XMLID_25_" x="347.456" y="88.782" fill="none" stroke="#474747" stroke-width="6" stroke-linecap="round" stroke-linejoin="round" stroke-miterlimit="10" width="92.022" height="74.605"/>
			
				<polyline id="XMLID_62_" fill="none" stroke="#474747" stroke-width="6" stroke-linecap="round" stroke-linejoin="round" stroke-miterlimit="10" points="
				360.167,146.12 376.983,121.676 394.479,143.278 			"/>
			
				<polyline id="XMLID_64_" fill="none" stroke="#474747" stroke-width="6" stroke-linecap="round" stroke-linejoin="round" stroke-miterlimit="10" points="
				388.049,135.355 411.595,112.557 428.265,146.12 			"/>
			
				<path id="XMLID_63_" fill="none" stroke="#474747" stroke-width="6" stroke-linecap="round" stroke-linejoin="round" stroke-miterlimit="10" d="
				M381.92,127.732c1.193-3.516,4.484-6.056,8.371-6.056c3.215,0,6.054,1.721,7.624,4.336"/>
			
				<path id="XMLID_24_" fill="none" stroke="#474747" stroke-width="6" stroke-linecap="round" stroke-linejoin="round" stroke-miterlimit="10" d="
				M678.76,213.77H547.866c-4.858,0-8.743-3.887-8.743-8.744l0,0c0-4.858,3.885-8.745,8.743-8.745H678.76
				c4.86,0,8.747,3.887,8.747,8.745l0,0C687.507,209.883,683.62,213.77,678.76,213.77z"/>
			
				<polygon id="XMLID_23_" fill="none" stroke="#474747" stroke-width="6" stroke-linecap="round" stroke-linejoin="round" stroke-miterlimit="10" points="
				633.759,196.28 595.417,196.28 587.49,147.316 641.763,147.316 			"/>
			
				<rect id="XMLID_46_" x="580.235" y="133.114" fill="none" stroke="#474747" stroke-width="6" stroke-linecap="round" stroke-linejoin="round" stroke-miterlimit="10" width="68.998" height="14.202"/>
			<g id="XMLID_68_">
				
					<path id="XMLID_83_" fill="none" stroke="#474747" stroke-width="6" stroke-linecap="round" stroke-linejoin="round" stroke-miterlimit="10" d="
					M623.522,133.114c-4.713,0-9.424,0-14.134,0c-3.887-13.53-7.247-27.735-6.797-41.639c0.521-6.65,7.696-12.261,13.9-12.261l0,0
					c6.207,0,13.378,5.61,13.906,12.261C630.696,105.379,627.33,119.584,623.522,133.114z"/>
			</g>
			
				<path id="XMLID_71_" fill="none" stroke="#474747" stroke-width="6" stroke-linecap="round" stroke-linejoin="round" stroke-miterlimit="10" d="
				M630.696,89.833l9.793-16.221c1.871-3.143,6.127-3.815,8.896-1.422l0,0c2.767,2.392,2.688,6.653-0.151,8.97l-18.389,15.1"/>
			
				<path id="XMLID_75_" fill="none" stroke="#474747" stroke-width="6" stroke-linecap="round" stroke-linejoin="round" stroke-miterlimit="10" d="
				M640.638,73.458l-4.637-14.5c-0.741-2.242,0.75-4.56,3.067-4.857l0,0c2.315-0.302,4.335,1.495,4.335,3.809l-0.373,11.736"/>
		</g>
		<g id="XMLID_20_">
			
				<rect id="XMLID_7_" x="398.554" y="211.738" transform="matrix(0.4382 -0.8989 0.8989 0.4382 47.9895 608.8777)" fill="#77BA85" width="225.09" height="108.617"/>
			
				<rect id="XMLID_17_" x="398.554" y="211.738" transform="matrix(0.4382 -0.8989 0.8989 0.4382 47.9895 608.8777)" fill="none" stroke="#474747" stroke-width="6" stroke-linecap="round" stroke-linejoin="round" stroke-miterlimit="10" width="225.09" height="108.617"/>
			<path id="XMLID_16_" fill="#F6F9EA" d="M570.592,183.646l-31.242-15.251c-5.907,12.187-20.558,17.197-32.746,11.288
				l-76.991,157.876l75.276,36.707l76.994-157.877C569.694,210.482,564.613,195.834,570.592,183.646z"/>
			
				<path id="XMLID_12_" fill="none" stroke="#474747" stroke-width="6" stroke-linecap="round" stroke-linejoin="round" stroke-miterlimit="10" d="
				M570.592,183.646l-31.242-15.251c-5.907,12.187-20.558,17.197-32.746,11.288l-76.991,157.876l75.276,36.707l76.994-157.877
				C569.694,210.482,564.613,195.834,570.592,183.646z"/>
			
				<rect id="XMLID_10_" x="469.25" y="165.917" transform="matrix(-0.8989 -0.4382 0.4382 -0.8989 853.9703 729.0969)" fill="none" stroke="#474747" stroke-width="6" stroke-linecap="round" stroke-linejoin="round" stroke-miterlimit="10" width="83.724" height="200.191"/>
			<path id="XMLID_19_" fill="#77BA85" d="M518.566,224.608c14.161,0,25.641,11.479,25.641,25.641
				c0,14.159-11.479,25.64-25.641,25.64c-14.164,0-25.641-11.481-25.641-25.64C492.926,236.087,504.402,224.608,518.566,224.608z"/>
			
				<path id="XMLID_13_" fill="none" stroke="#474747" stroke-width="6" stroke-linecap="round" stroke-linejoin="round" stroke-miterlimit="10" d="
				M518.566,224.608c14.161,0,25.641,11.479,25.641,25.641c0,14.159-11.479,25.64-25.641,25.64
				c-14.164,0-25.641-11.481-25.641-25.64C492.926,236.087,504.402,224.608,518.566,224.608z"/>
		</g>
		<g id="XMLID_22_">
			
				<rect id="XMLID_33_" x="448.681" y="233.049" transform="matrix(0.7733 -0.634 0.634 0.7733 -54.9708 420.9608)" fill="#97CD78" width="225.071" height="108.613"/>
			
				<rect id="XMLID_32_" x="448.681" y="233.049" transform="matrix(0.7733 -0.634 0.634 0.7733 -54.9708 420.9608)" fill="none" stroke="#474747" stroke-width="6" stroke-linecap="round" stroke-linejoin="round" stroke-miterlimit="10" width="225.071" height="108.613"/>
			<path id="XMLID_31_" fill="#F6F9EA" d="M649.605,237.319l-22.052-26.837c-10.465,8.597-25.861,7.028-34.461-3.438
				L457.269,318.426l53.077,64.734l135.821-111.383C637.575,261.39,639.14,245.917,649.605,237.319z"/>
			
				<path id="XMLID_30_" fill="none" stroke="#474747" stroke-width="6" stroke-linecap="round" stroke-linejoin="round" stroke-miterlimit="10" d="
				M649.605,237.319l-22.052-26.837c-10.465,8.597-25.861,7.028-34.461-3.438L457.269,318.426l53.077,64.734l135.821-111.383
				C637.575,261.39,639.14,245.917,649.605,237.319z"/>
			
				<polygon id="XMLID_29_" fill="none" stroke="#474747" stroke-width="6" stroke-linecap="round" stroke-linejoin="round" stroke-miterlimit="10" points="
				612.011,191.55 665.091,256.292 510.281,383.215 457.202,318.467 			"/>
			<circle id="XMLID_28_" fill="#97CD78" cx="574.558" cy="276.191" r="25.64"/>
			
				<circle id="XMLID_27_" fill="none" stroke="#474747" stroke-width="6" stroke-linecap="round" stroke-linejoin="round" stroke-miterlimit="10" cx="574.558" cy="276.191" r="25.64"/>
			
				<path id="XMLID_48_" opacity="0.32" fill="#474747" stroke="#474747" stroke-width="6" stroke-linecap="round" stroke-linejoin="round" stroke-miterlimit="10" enable-background="new    " d="
				M577.394,249.279c0-13.304-5.003-25.418-13.153-34.684L439.701,316.706l68.921,84.022l68.85-56.44v-95.009H577.394z"/>
		</g>
		
			<line id="XMLID_9_" opacity="0.15" fill="none" stroke="#474747" stroke-width="6" stroke-linecap="round" stroke-linejoin="round" stroke-miterlimit="10" enable-background="new    " x1="233.235" y1="466.809" x2="728.098" y2="466.809"/>
		<g>
			<path id="XMLID_15_" fill="#F58870" d="M525.072,466.809H368.088c-24.746,0-44.851-20.111-44.851-44.852V245.54
				c0-24.74,20.105-44.851,44.851-44.851h156.984c24.739,0,44.847,20.111,44.847,44.851v176.417
				C569.919,446.775,549.884,466.809,525.072,466.809z"/>
			<path id="XMLID_36_" fill="#F4DE71" d="M525.072,466.809H368.088c-24.746,0-44.851-20.111-44.851-44.852V245.54
				c0-24.74,20.105-44.851,44.851-44.851h156.984c24.739,0,44.847,20.111,44.847,44.851v176.417
				C569.919,446.775,549.884,466.809,525.072,466.809z"/>
			<path id="XMLID_43_" fill="#C9C161" d="M525.072,457.762H368.088c-24.746,0-44.851-20.105-44.851-44.848v9.043
				c0,24.74,20.105,44.852,44.851,44.852h156.984c24.739,0,44.847-20.111,44.847-44.852v-9.043
				C569.919,437.656,549.884,457.762,525.072,457.762z"/>
			<path id="XMLID_40_" fill="#FFF89C" d="M525.072,200.688H368.088c-24.746,0-44.851,18.466-44.851,41.19v9.643
				c0-22.727,20.105-41.19,44.851-41.19h156.984c24.739,0,44.847,18.463,44.847,41.19v-9.643
				C569.919,219.154,549.884,200.688,525.072,200.688z"/>
			
				<path id="XMLID_34_" opacity="0.3" fill="#474747" stroke="#474747" stroke-width="6" stroke-linecap="round" stroke-linejoin="round" stroke-miterlimit="10" enable-background="new    " d="
				M472.746,310.2h-40.371c-7.4,0-13.455-6.051-13.455-13.454v-82.6c0-7.403,6.054-13.458,13.455-13.458h53.824v96.058
				C486.199,304.149,480.218,310.2,472.746,310.2z"/>
			
				<path id="XMLID_2_" fill="none" stroke="#474747" stroke-width="6" stroke-linecap="round" stroke-linejoin="round" stroke-miterlimit="10" d="
				M525.072,466.809H368.088c-24.746,0-44.851-20.111-44.851-44.852V245.54c0-24.74,20.105-44.851,44.851-44.851h156.984
				c24.739,0,44.847,20.111,44.847,44.851v176.417C569.919,446.775,549.884,466.809,525.072,466.809z"/>
			<g id="XMLID_5_" opacity="0.46">
				
					<path fill="none" stroke="#474747" stroke-width="4" stroke-linecap="round" stroke-linejoin="round" stroke-dasharray="13.9577,9.9698" d="
					M339.682,420.836V246.664c0-15.7,12.71-28.41,28.407-28.41h156.984c15.693,0,28.407,12.71,28.407,28.41v174.1
					c0,15.695-12.714,28.402-28.407,28.402H368.088C352.392,449.242,339.682,436.539,339.682,420.836z"/>
			</g>
			<path id="XMLID_18_" fill="#F4DE71" d="M466.764,301.98h-40.366c-7.401,0-13.458-6.056-13.458-13.459v-91.193
				c0-7.403,6.056-13.457,13.458-13.457h40.366c7.401,0,13.455,6.054,13.455,13.457v91.193
				C480.218,295.925,474.239,301.98,466.764,301.98z"/>
			<path id="XMLID_45_" fill="#E0BB46" d="M466.764,295.775h-40.366c-7.401,0-13.458-6.057-13.458-13.458v6.204
				c0,7.403,6.056,13.459,13.458,13.459h40.366c7.401,0,13.455-6.056,13.455-13.459v-6.204
				C480.218,289.719,474.239,295.775,466.764,295.775z"/>
			<path id="XMLID_44_" fill="#FFB797" d="M466.764,183.872h-40.366c-7.401,0-13.458,6.054-13.458,13.457v5.078
				c0-7.4,6.056-13.455,13.458-13.455h40.366c7.401,0,13.455,6.054,13.455,13.455v-5.078
				C480.218,189.925,474.239,183.872,466.764,183.872z"/>
			
				<path id="XMLID_4_" fill="none" stroke="#474747" stroke-width="6" stroke-linecap="round" stroke-linejoin="round" stroke-miterlimit="10" d="
				M466.764,301.98h-40.366c-7.401,0-13.458-6.056-13.458-13.459v-91.193c0-7.403,6.056-13.457,13.458-13.457h40.366
				c7.401,0,13.455,6.054,13.455,13.457v91.193C480.218,295.925,474.239,301.98,466.764,301.98z"/>
			
				<path id="XMLID_35_" opacity="0.3" fill="#474747" stroke="#474747" stroke-width="6" stroke-linecap="round" stroke-linejoin="round" stroke-miterlimit="10" enable-background="new    " d="
				M448.822,248.007c9.576,0,17.342,7.766,17.342,17.343c0,9.572-7.766,17.345-17.342,17.345c-9.579,0-17.342-7.773-17.342-17.345
				C431.48,255.773,439.243,248.007,448.822,248.007z"/>
			<g id="XMLID_11_" opacity="0.46">
				
					<path fill="none" stroke="#474747" stroke-width="4" stroke-linecap="round" stroke-linejoin="round" stroke-dasharray="9.8393,11.8071" d="
					M426.397,293.01c-2.471,0-4.487-2.02-4.487-4.488v-91.193c0-2.471,2.016-4.487,4.487-4.487h40.366
					c2.465,0,4.487,2.016,4.487,4.487v91.193c0,2.469-2.022,4.488-4.487,4.488H426.397z"/>
			</g>
			<path id="XMLID_21_" fill="#8F6D5D" d="M446.581,243.523c9.576,0,17.341,7.763,17.341,17.339c0,9.582-7.765,17.344-17.341,17.344
				c-9.579,0-17.345-7.763-17.345-17.344C429.236,251.287,437.001,243.523,446.581,243.523z"/>
			
				<path id="XMLID_6_" fill="none" stroke="#474747" stroke-width="6" stroke-linecap="round" stroke-linejoin="round" stroke-miterlimit="10" d="
				M446.581,243.523c9.576,0,17.341,7.763,17.341,17.339c0,9.582-7.765,17.344-17.341,17.344c-9.579,0-17.345-7.763-17.345-17.344
				C429.236,251.287,437.001,243.523,446.581,243.523z"/>
			<g id="XMLID_37_" opacity="0.6">
				<path fill="#FFFCEE" d="M453.903,251.967c0.6,2.844-2.763,4.641-7.696,5.684c-5.012,0.974-9.495,1.121-10.092-1.269
					c-0.597-2.321,2.763-6.729,7.7-8.151C448.822,246.814,453.309,249.204,453.903,251.967z"/>
			</g>
		</g>
		<g id="XMLID_65_">
			<path id="XMLID_41_" fill="#FDB740" d="M696.18,466.809h-52.33c-2.989,0-5.457-2.469-5.457-5.457v-3.662
				c0-2.992,2.468-5.457,5.457-5.457h52.33c2.987,0,5.457,2.465,5.457,5.457v3.662C701.637,464.422,699.167,466.809,696.18,466.809z
				"/>
			<path id="XMLID_72_" opacity="0.88" fill="#FFF3C0" enable-background="new    " d="M696.18,453.803h-52.33
				c-2.989,0-5.457,2.467-5.457,5.457v2.092c0-2.99,2.468-5.455,5.457-5.455h52.33c2.987,0,5.457,2.465,5.457,5.455v-2.092
				C701.637,456.27,699.167,453.803,696.18,453.803z"/>
			<path id="XMLID_70_" fill="#F29E25" d="M696.18,465.166h-52.33c-2.989,0-5.457-2.469-5.457-5.457v-2.098
				c0,2.992,2.468,5.461,5.457,5.461h52.33c2.987,0,5.457-2.469,5.457-5.461v2.098C701.637,462.77,699.167,465.166,696.18,465.166z"
				/>
			
				<path id="XMLID_39_" fill="none" stroke="#474747" stroke-width="6" stroke-linecap="round" stroke-linejoin="round" stroke-miterlimit="10" d="
				M696.18,466.809h-52.33c-2.989,0-5.457-2.469-5.457-5.457v-3.662c0-2.992,2.468-5.457,5.457-5.457h52.33
				c2.987,0,5.457,2.465,5.457,5.457v3.662C701.637,464.422,699.167,466.809,696.18,466.809z"/>
		</g>
		<g id="XMLID_73_">
			<path id="XMLID_90_" fill="#FDB740" d="M704.925,452.305h-52.33c-2.989,0-5.451-2.463-5.451-5.455v-3.664
				c0-2.988,2.462-5.457,5.451-5.457h52.33c2.989,0,5.459,2.469,5.459,5.457v3.664C710.31,449.914,707.914,452.305,704.925,452.305z
				"/>
			<path id="XMLID_89_" opacity="0.88" fill="#FFF3C0" enable-background="new    " d="M704.925,439.299h-52.33
				c-2.989,0-5.451,2.471-5.451,5.457v2.094c0-2.988,2.462-5.455,5.451-5.455h52.33c2.989,0,5.459,2.467,5.459,5.455v-2.094
				C710.31,441.77,707.914,439.299,704.925,439.299z"/>
			<path id="XMLID_88_" fill="#F29E25" d="M704.925,450.662h-52.33c-2.989,0-5.451-2.469-5.451-5.451v-2.098
				c0,2.992,2.462,5.455,5.451,5.455h52.33c2.989,0,5.459-2.463,5.459-5.455v2.098C710.31,448.27,707.914,450.662,704.925,450.662z"
				/>
			
				<path id="XMLID_74_" fill="none" stroke="#474747" stroke-width="6" stroke-linecap="round" stroke-linejoin="round" stroke-miterlimit="10" d="
				M704.925,452.305h-52.33c-2.989,0-5.451-2.463-5.451-5.455v-3.664c0-2.988,2.462-5.457,5.451-5.457h52.33
				c2.989,0,5.459,2.469,5.459,5.457v3.664C710.31,449.914,707.914,452.305,704.925,452.305z"/>
		</g>
		<g id="XMLID_47_">
			<path id="XMLID_56_" fill="#FDB740" d="M696.18,437.807h-52.33c-2.989,0-5.457-2.467-5.457-5.457v-3.662
				c0-2.992,2.468-5.463,5.457-5.463h52.33c2.987,0,5.457,2.471,5.457,5.463v3.662C701.637,435.41,699.167,437.807,696.18,437.807z"
				/>
			<path id="XMLID_53_" opacity="0.88" fill="#FFF3C0" enable-background="new    " d="M696.18,424.871h-52.33
				c-2.989,0-5.457,2.467-5.457,5.463v2.092c0-2.992,2.468-5.461,5.457-5.461h52.33c2.987,0,5.457,2.469,5.457,5.461v-2.092
				C701.637,427.264,699.167,424.871,696.18,424.871z"/>
			<path id="XMLID_50_" fill="#F29E25" d="M696.18,436.234h-52.33c-2.989,0-5.457-2.465-5.457-5.461v-2.086
				c0,2.988,2.468,5.457,5.457,5.457h52.33c2.987,0,5.457-2.469,5.457-5.457v2.086C701.637,433.77,699.167,436.234,696.18,436.234z"
				/>
			
				<path id="XMLID_49_" fill="none" stroke="#474747" stroke-width="6" stroke-linecap="round" stroke-linejoin="round" stroke-miterlimit="10" d="
				M696.18,437.807h-52.33c-2.989,0-5.457-2.467-5.457-5.457v-3.662c0-2.992,2.468-5.463,5.457-5.463h52.33
				c2.987,0,5.457,2.471,5.457,5.463v3.662C701.637,435.41,699.167,437.807,696.18,437.807z"/>
		</g>
		<g id="XMLID_58_">
			<path id="XMLID_67_" fill="#FDB740" d="M636.976,426.889l-35.734,38.201c-2.017,2.168-5.451,2.318-7.696,0.219l-2.618-2.461
				c-2.167-2.02-2.318-5.457-0.227-7.699l35.735-38.197c2.02-2.174,5.452-2.316,7.702-0.225l2.613,2.465
				C638.848,421.285,638.989,424.648,636.976,426.889z"/>
			<path id="XMLID_66_" opacity="0.88" fill="#FFF3C0" enable-background="new    " d="M627.481,417.994l-35.729,38.199
				c-2.021,2.168-1.946,5.611,0.221,7.703l1.572,1.412c-2.17-2.012-2.313-5.449-0.223-7.697l35.729-38.197
				c2.02-2.164,5.458-2.318,7.7-0.223l-1.571-1.424C632.938,415.678,629.501,415.824,627.481,417.994z"/>
			<path id="XMLID_61_" fill="#F29E25" d="M635.776,425.771l-35.731,38.197c-2.013,2.166-5.454,2.318-7.696,0.225l-1.573-1.424
				c2.167,2.02,5.607,1.947,7.7-0.223l35.735-38.201c2.016-2.162,1.939-5.602-0.227-7.693l1.567,1.418
				C637.65,420.16,637.802,423.6,635.776,425.771z"/>
			
				<path id="XMLID_60_" fill="none" stroke="#474747" stroke-width="6" stroke-linecap="round" stroke-linejoin="round" stroke-miterlimit="10" d="
				M636.976,426.889l-35.734,38.201c-2.017,2.168-5.451,2.318-7.696,0.219l-2.618-2.461c-2.167-2.02-2.318-5.457-0.227-7.699
				l35.735-38.197c2.02-2.174,5.452-2.316,7.702-0.225l2.613,2.465C638.848,421.285,638.989,424.648,636.976,426.889z"/>
		</g>
	</g>
</g>
</svg>
